<svg width="121" height="38" viewBox="0 0 121 38" fill="none" xmlns="http://www.w3.org/2000/svg">
<g id="Full logo cloud red">
<g id="Group 1">
<path id="Vector" d="M8.64023 24.9777C8.69782 25.0087 8.73335 25.0693 8.73246 25.1348L8.72324 32.7296C8.72334 32.7341 8.72331 32.7386 8.72317 32.7431C8.71683 32.8817 8.56323 32.9616 8.44658 32.8868L1.50355 28.8652C1.27474 28.7327 1.13399 28.4876 1.13477 28.2227L1.15324 20.956C1.15541 20.815 1.30802 20.7283 1.42979 20.7988L8.64023 24.9777Z" fill="#F43F5E"/>
<path id="Vector_2" d="M16.0952 20.863C16.3229 20.9959 16.462 21.2412 16.4594 21.5055L16.4087 36.2283C16.4067 36.7965 15.793 37.1503 15.3022 36.8662L10.6459 34.162C10.5882 34.131 10.5528 34.0704 10.5536 34.0049V23.9324L1.1626 18.5101L1.17641 13.4947C1.17837 12.9265 1.79209 12.5727 2.28286 12.8568L16.0952 20.863Z" fill="#F43F5E"/>
<path id="Vector_3" d="M31.9451 9.28469C32.4362 9.56948 32.4362 10.2803 31.9451 10.5651L18.1281 18.6222C17.8983 18.7542 17.6158 18.7542 17.3859 18.6222L3.56898 10.616C3.07792 10.3312 3.07792 9.6203 3.56898 9.33552L7.83809 6.84393C7.89536 6.81184 7.9652 6.81184 8.02248 6.84393L17.7548 12.4834L27.5192 6.82551C27.5765 6.79335 27.6463 6.79335 27.7036 6.82551L31.9451 9.28469Z" fill="#F43F5E"/>
<path id="Vector_4" d="M10.0417 5.5589L17.3813 1.27385C17.6112 1.14179 17.8936 1.14179 18.1235 1.27385L25.4953 5.54506C25.616 5.61894 25.616 5.79475 25.4953 5.86864L17.8469 10.2785C17.7896 10.3107 17.7198 10.3107 17.6625 10.2785L10.0417 5.87791C9.92033 5.80639 9.92033 5.63036 10.0417 5.5589Z" fill="#F43F5E"/>
<path id="Vector_5" d="M34.0255 20.7708C34.149 20.7008 34.3019 20.7911 34.3006 20.9334L34.2776 28.1677C34.2778 28.4289 34.139 28.6704 33.9134 28.8009L26.9611 32.8596C26.9607 32.8598 26.9602 32.8601 26.9597 32.8604C26.8361 32.9304 26.6832 32.8401 26.6845 32.6977L26.6753 25.1353C26.6743 25.0698 26.7099 25.0092 26.7675 24.9781L34.024 20.7716C34.0245 20.7714 34.025 20.7711 34.0255 20.7708Z" fill="#F43F5E"/>
<path id="Vector_6" d="M33.2129 12.8207C33.2145 12.8197 33.216 12.8188 33.2175 12.818C33.7073 12.5368 34.3168 12.8928 34.3147 13.4585L34.3009 18.3677C34.3036 18.4349 34.2678 18.4977 34.2087 18.5295L24.8499 23.9332V33.9826C24.8508 34.0481 24.8153 34.1087 24.7577 34.1398L20.106 36.8578C20.1054 36.8581 20.1048 36.8585 20.1042 36.8588C19.6117 37.1421 18.9979 36.7846 18.9995 36.2153L19.0456 21.5017C19.0455 21.2394 19.1841 20.9967 19.4098 20.8639L33.2129 12.8207Z" fill="#F43F5E"/>
</g>
<path id="Cloud" d="M55.6069 28.8378C53.5602 28.8378 51.7766 28.3992 50.2562 27.5221C48.7553 26.6254 47.5858 25.4071 46.7476 23.8672C45.9289 22.3079 45.5196 20.5341 45.5196 18.5458C45.5196 17.0449 45.7633 15.6707 46.2506 14.4232C46.7574 13.1562 47.4591 12.0646 48.3557 11.1485C49.2719 10.2323 50.344 9.52087 51.572 9.01407C52.8 8.50727 54.145 8.25386 55.6069 8.25386C57.9265 8.25386 59.827 8.75092 61.3084 9.74503C62.7898 10.7391 63.9496 12.1231 64.7878 13.8969L61.2207 15.1834C60.4995 14.0139 59.6808 13.1854 58.7647 12.6981C57.8485 12.2108 56.7959 11.9672 55.6069 11.9672C54.4179 11.9672 53.3555 12.2498 52.4199 12.8151C51.5038 13.3609 50.7728 14.1308 50.227 15.1249C49.7007 16.0995 49.4376 17.2398 49.4376 18.5458C49.4376 19.8323 49.7007 20.9726 50.227 21.9667C50.7728 22.9609 51.5038 23.7405 52.4199 24.3058C53.3555 24.8516 54.4179 25.1245 55.6069 25.1245C56.7959 25.1245 57.8485 24.8809 58.7647 24.3935C59.6808 23.9062 60.4995 23.0778 61.2207 21.9083L64.7878 23.1948C63.9496 24.9686 62.7898 26.3525 61.3084 27.3466C59.827 28.3407 57.9265 28.8378 55.6069 28.8378ZM70.1734 28.6331C69.5302 28.6331 68.9356 28.4967 68.3898 28.2238C67.8636 27.9509 67.4347 27.5318 67.1034 26.9665C66.7915 26.3818 66.6355 25.6313 66.6355 24.7152V8.57549H70.4365V23.3702C70.4365 24.0524 70.573 24.5008 70.8459 24.7152C71.1188 24.9101 71.4502 25.0076 71.84 25.0076V28.4285C71.6256 28.5064 71.3624 28.5552 71.0506 28.5747C70.7582 28.6136 70.4658 28.6331 70.1734 28.6331ZM80.6319 28.8378C79.1505 28.8378 77.8445 28.5259 76.7139 27.9022C75.6029 27.2589 74.7355 26.3818 74.1117 25.2707C73.4879 24.1401 73.1761 22.8342 73.1761 21.3527C73.1761 19.8713 73.4879 18.5751 74.1117 17.464C74.7355 16.3334 75.6029 15.4563 76.7139 14.8325C77.8445 14.1893 79.1505 13.8677 80.6319 13.8677C82.1133 13.8677 83.4096 14.1893 84.5206 14.8325C85.6512 15.4563 86.5283 16.3334 87.1521 17.464C87.7758 18.5751 88.0877 19.8713 88.0877 21.3527C88.0877 22.8342 87.7758 24.1401 87.1521 25.2707C86.5283 26.3818 85.6512 27.2589 84.5206 27.9022C83.4096 28.5259 82.1133 28.8378 80.6319 28.8378ZM80.6319 25.1245C81.6845 25.1245 82.5421 24.7736 83.2049 24.0719C83.8676 23.3702 84.199 22.4638 84.199 21.3527C84.199 20.2222 83.8676 19.306 83.2049 18.6043C82.5421 17.9026 81.6845 17.5517 80.6319 17.5517C79.5793 17.5517 78.7216 17.9026 78.0589 18.6043C77.4157 19.2865 77.094 20.1929 77.094 21.3235C77.094 22.4541 77.4157 23.3702 78.0589 24.0719C78.7216 24.7736 79.5793 25.1245 80.6319 25.1245ZM94.7436 28.8378C93.6715 28.8378 92.8139 28.6721 92.1706 28.3407C91.5274 28.0094 91.0303 27.5708 90.6794 27.025C90.3481 26.4597 90.1239 25.8165 90.007 25.0953C89.89 24.374 89.8315 23.6236 89.8315 22.8439V14.1893H93.6618V22.8731C93.6618 23.7503 93.847 24.3351 94.2173 24.6275C94.6072 24.9198 95.0652 25.066 95.5915 25.066C96.0788 25.066 96.5661 24.9783 97.0534 24.8029C97.5408 24.6275 97.9988 24.374 98.4277 24.0427C98.876 23.6918 99.2463 23.2922 99.5387 22.8439L100.007 24.8614H99.0709V14.1893H102.901V28.4869H100.036L99.2463 25.7678L100.474 25.797C99.987 26.3623 99.4315 26.8788 98.8078 27.3466C98.2035 27.8145 97.5505 28.1848 96.8488 28.4577C96.1665 28.7111 95.4648 28.8378 94.7436 28.8378ZM111.464 28.8378C110.158 28.8378 109.008 28.5162 108.014 27.8729C107.019 27.2297 106.25 26.3428 105.704 25.2122C105.158 24.0817 104.885 22.7854 104.885 21.3235C104.885 19.8421 105.158 18.5458 105.704 17.4348C106.269 16.3042 107.049 15.4271 108.043 14.8033C109.037 14.1795 110.177 13.8677 111.464 13.8677C112.731 13.8677 113.832 14.1601 114.768 14.7448C115.703 15.3296 116.434 16.1775 116.961 17.2886C117.487 18.3996 117.75 19.7446 117.75 21.3235C117.75 22.8439 117.487 24.1694 116.961 25.2999C116.434 26.411 115.694 27.2784 114.738 27.9022C113.803 28.5259 112.711 28.8378 111.464 28.8378ZM112.136 25.2999C113.13 25.2999 113.939 24.9393 114.563 24.2181C115.187 23.4774 115.499 22.5223 115.499 21.3527C115.499 20.1637 115.187 19.2086 114.563 18.4874C113.939 17.7466 113.13 17.3763 112.136 17.3763C111.162 17.3763 110.353 17.7466 109.709 18.4874C109.086 19.2086 108.774 20.154 108.774 21.3235C108.774 22.493 109.086 23.4482 109.709 24.1889C110.353 24.9296 111.162 25.2999 112.136 25.2999ZM116.288 28.4869L115.323 25.0953H115.586V17.9318H115.323V8.57549H119.153V28.4869H116.288Z" fill="white"/>
</g>
</svg>
