<svg width="467" height="119" viewBox="0 0 467 119" fill="none" xmlns="http://www.w3.org/2000/svg">
<path d="M25.2838 79.1269C25.4734 79.2287 25.5904 79.4277 25.5875 79.643L25.5571 104.579C25.5575 104.594 25.5574 104.609 25.5569 104.623C25.536 105.079 25.0304 105.341 24.6463 105.095L1.78927 91.8909C1.03599 91.4559 0.572628 90.6513 0.575206 89.7814L0.636026 65.9224C0.643175 65.4594 1.14556 65.1749 1.54646 65.4064L25.2838 79.1269Z" fill="#F43F5E"/>
<path d="M49.8257 65.619C50.5755 66.0555 51.0332 66.8609 51.0247 67.7286L50.8578 116.068C50.8512 117.934 48.8308 119.096 47.2152 118.163L31.8861 109.284C31.6963 109.182 31.5795 108.983 31.5824 108.768V75.6968L0.66626 57.8938L0.711729 41.4264C0.718174 39.5607 2.7386 38.3991 4.35427 39.3319L49.8257 65.619Z" fill="#F43F5E"/>
<path d="M102.005 27.5998C103.622 28.5349 103.622 30.8688 102.005 31.8038L56.5187 58.2579C55.7619 58.6914 54.8321 58.6914 54.0751 58.2579L8.58867 31.9708C6.97207 31.0357 6.97207 28.7017 8.58867 27.7667L22.643 19.5859C22.8315 19.4806 23.0614 19.4806 23.25 19.5859L55.2895 38.1024L87.435 19.5255C87.6237 19.4199 87.8535 19.4199 88.0421 19.5255L102.005 27.5998Z" fill="#06B6D4"/>
<path d="M29.8977 15.3671L54.06 1.29785C54.8169 0.864258 55.7468 0.864258 56.5036 1.29785L80.7722 15.3217C81.1696 15.5643 81.1696 16.1415 80.7722 16.3841L55.5929 30.8632C55.4044 30.9688 55.1746 30.9688 54.9859 30.8632L29.8977 16.4146C29.498 16.1797 29.498 15.6018 29.8977 15.3671Z" fill="#06B6D4"/>
<path d="M108.855 65.3129C109.262 65.083 109.765 65.3796 109.761 65.8469L109.685 89.5993C109.686 90.457 109.229 91.2499 108.486 91.6786L85.5987 105.004C85.5972 105.005 85.5955 105.006 85.594 105.007C85.187 105.237 84.6838 104.94 84.688 104.473L84.6578 79.6432C84.6545 79.4279 84.7716 79.2289 84.9613 79.1271L108.85 65.3157C108.852 65.3148 108.854 65.3138 108.855 65.3129Z" fill="#FB923C"/>
<path d="M106.179 39.2103C106.184 39.2073 106.189 39.2043 106.194 39.2014C107.807 38.2784 109.813 39.447 109.807 41.3047L109.761 57.423C109.77 57.6437 109.652 57.8499 109.457 57.9542L78.6476 75.6967V108.692C78.6505 108.907 78.5336 109.106 78.3439 109.208L63.03 118.132C63.028 118.134 63.0261 118.135 63.0241 118.136C61.4029 119.066 59.3822 117.892 59.3875 116.023L59.5391 67.7132C59.539 66.8519 59.9952 66.0549 60.7382 65.6189L106.179 39.2103Z" fill="#FB923C"/>
<path d="M160.512 60.896H172.8C176.512 60.896 179.456 59.936 181.632 58.016C183.808 56.096 184.896 53.376 184.896 49.856C184.896 46.144 183.808 43.36 181.632 41.504C179.52 39.584 176.608 38.624 172.896 38.624H160.416L163.104 35.84V92H150.528V26.624H174.048C178.848 26.624 183.008 27.616 186.528 29.6C190.048 31.52 192.8 34.208 194.784 37.664C196.768 41.12 197.76 45.184 197.76 49.856C197.76 54.464 196.768 58.528 194.784 62.048C192.8 65.504 190.016 68.192 186.432 70.112C182.912 72.032 178.784 72.992 174.048 72.992H160.512V60.896ZM216.16 93.344C212.704 93.344 209.664 92.704 207.04 91.424C204.416 90.08 202.4 88.224 200.992 85.856C199.584 83.424 198.88 80.608 198.88 77.408C198.88 74.208 199.616 71.424 201.088 69.056C202.624 66.688 204.704 64.864 207.328 63.584C209.952 62.24 212.928 61.568 216.256 61.568C220.8 61.568 224.48 62.624 227.296 64.736C230.176 66.784 232.128 69.728 233.152 73.568L227.296 72.8V61.472C227.296 59.68 226.656 58.08 225.376 56.672C224.096 55.264 222.016 54.56 219.136 54.56C217.344 54.56 215.36 54.784 213.184 55.232C211.008 55.616 208.736 56.384 206.368 57.536L202.624 48.32C205.376 46.976 208.288 45.92 211.36 45.152C214.496 44.384 217.632 44 220.768 44C225.056 44 228.608 44.768 231.424 46.304C234.24 47.84 236.352 49.952 237.76 52.64C239.168 55.328 239.872 58.4 239.872 61.856V92H229.888L227.2 83.072L233.152 81.344C232.064 85.12 230.048 88.064 227.104 90.176C224.224 92.288 220.576 93.344 216.16 93.344ZM219.616 83.744C221.92 83.744 223.776 83.168 225.184 82.016C226.592 80.864 227.296 79.328 227.296 77.408C227.296 75.424 226.592 73.888 225.184 72.8C223.776 71.648 221.92 71.072 219.616 71.072C217.312 71.072 215.456 71.648 214.048 72.8C212.64 73.888 211.936 75.424 211.936 77.408C211.936 79.328 212.64 80.864 214.048 82.016C215.456 83.168 217.312 83.744 219.616 83.744ZM270.105 93.152C265.305 93.152 261.113 92.096 257.529 89.984C253.945 87.872 251.161 84.96 249.177 81.248C247.257 77.536 246.297 73.28 246.297 68.48C246.297 63.744 247.257 59.52 249.177 55.808C251.161 52.096 253.945 49.216 257.529 47.168C261.113 45.056 265.305 44 270.105 44C275.097 44 279.481 45.28 283.257 47.84C287.097 50.336 289.849 53.728 291.513 58.016L279.993 63.008C279.033 60.832 277.721 59.136 276.057 57.92C274.457 56.704 272.441 56.096 270.009 56.096C266.873 56.096 264.249 57.216 262.137 59.456C260.025 61.632 258.969 64.64 258.969 68.48C258.969 72.384 260.025 75.424 262.137 77.6C264.249 79.776 266.873 80.864 270.009 80.864C272.441 80.864 274.457 80.288 276.057 79.136C277.721 77.92 279.033 76.224 279.993 74.048L291.513 79.04C289.849 83.264 287.097 86.688 283.257 89.312C279.417 91.872 275.033 93.152 270.105 93.152ZM305.89 68.384V66.752L325.474 45.056H339.778L317.986 69.44L317.41 64.352L340.162 92H325.378L305.89 68.384ZM297.058 26.624H309.538V92H297.058V26.624ZM355.246 92.48C353.134 92.48 351.182 92.032 349.39 91.136C347.662 90.24 346.254 88.864 345.166 87.008C344.142 85.088 343.63 82.624 343.63 79.616V26.624H356.11V75.2C356.11 77.44 356.558 78.912 357.454 79.616C358.35 80.256 359.438 80.576 360.718 80.576V91.808C360.014 92.064 359.15 92.224 358.126 92.288C357.166 92.416 356.206 92.48 355.246 92.48ZM380.656 92H368.08V45.056H380.656V92ZM366.736 30.464C366.736 28.16 367.408 26.304 368.752 24.896C370.16 23.424 372.016 22.688 374.32 22.688C376.624 22.688 378.448 23.424 379.792 24.896C381.2 26.304 381.904 28.16 381.904 30.464C381.904 32.64 381.2 34.432 379.792 35.84C378.448 37.248 376.624 37.952 374.32 37.952C372.016 37.952 370.16 37.248 368.752 35.84C367.408 34.432 366.736 32.64 366.736 30.464ZM394.007 92V41.504C394.007 38.048 394.615 35.136 395.831 32.768C397.111 30.336 398.871 28.512 401.111 27.296C403.351 26.08 406.007 25.472 409.079 25.472C410.615 25.472 411.991 25.568 413.207 25.76C414.423 25.952 415.415 26.144 416.183 26.336V37.856C415.543 37.728 414.871 37.6 414.167 37.472C413.527 37.344 412.759 37.28 411.863 37.28C410.263 37.28 408.983 37.76 408.023 38.72C407.063 39.616 406.583 41.12 406.583 43.232V92H394.007ZM415.127 57.632H387.383V46.112H415.127V57.632ZM435.494 87.68L416.773 45.056H429.637L447.013 84.704L435.494 87.68ZM424.741 110.24L453.445 45.056H466.309L437.606 110.24H424.741Z" fill="#3F3F46"/>
</svg>
